<?xml version="1.0" encoding="utf-8"?>
<!-- Generator: Adobe Illustrator 18.0.0, SVG Export Plug-In . SVG Version: 6.00 Build 0)  -->
<!DOCTYPE svg PUBLIC "-//W3C//DTD SVG 1.1//EN" "http://www.w3.org/Graphics/SVG/1.1/DTD/svg11.dtd">
<svg version="1.1" id="Calque_1" xmlns="http://www.w3.org/2000/svg" xmlns:xlink="http://www.w3.org/1999/xlink" x="0px" y="0px"
	 viewBox="0 0 708.7 226.8" enable-background="new 0 0 708.7 226.8" xml:space="preserve" style="fill:#FFFFFF">
<g>
	<path d="M104,108.6l-14.8,4.2l-1.5,81.1l-29.6,2.7l-21.3-68.2l-20.2,6L9.9,52.9l85.3-23.4L104,108.6z"/>
	<path d="M219.1,35.4l-17.3,149.8l-28.2,3.3l0.4-52.6l-15.6,5v47.3l-20.4,2.5L108.6,69l49.8-25.9v60.1l15.6-5.2l0.2-62L219.1,35.4z"
		/>
	<path d="M338,113c0,11.3-1.5,22-4.4,32.3c-4.1,13.6-10.3,25-18.6,34.2c-10.1,11-21.5,16.5-34.2,16.5c-12.4,0-23.6-5.3-33.4-15.8
		c-8.2-8.8-14.4-19.8-18.6-33c-3.3-10.9-5-22.3-5-34.2s1.7-23.3,5-34.2c4.2-13.2,10.4-24.2,18.6-33c9.9-10.5,21-15.8,33.4-15.8
		c12.7,0,24.1,5.5,34.2,16.5c8.3,9.2,14.5,20.6,18.6,34.2C336.5,91,338,101.7,338,113z M295.1,140.1c0-5-1.6-9.4-4.8-13.3
		c-3.2-3.8-7.2-5.8-12.1-5.8c-4.9,0-8.9,2-12,5.9c-3.1,3.9-4.7,8.3-4.7,13.2c0,4.9,1.6,9.3,4.8,13.2c3.2,3.9,7.2,5.9,11.9,5.9
		c4.9,0,8.9-1.9,12.1-5.8C293.5,149.5,295.1,145.1,295.1,140.1z"/>
	<path d="M503.2,175.8l-47.6,21.7l-19.6-64.4l-12.1,62.2l-39.2-52.8l4.4,50.1l-19.2,2.3c-16-60.2-25.1-112.9-27.3-158.1l49.8-6.5
		l28.8,59.2l21.3-58l40-3.3L503.2,175.8z"/>
	<path d="M598.5,181.4l-40.3,16.5l-6.5-26.3H527l-4.2,21.5h-15l17.9-138.9c14.5-15.6,34.6-24.3,60.5-26.1L598.5,181.4z M548.3,158.3
		l-10.4-40.7l-8.1,40.7H548.3z"/>
	<path d="M698.7,79.6c-12.2,8.5-18.8,13.1-20,14c-7.2,5.5-13,11.3-17.5,17.5c-5.3,7.3-7.9,13.2-7.9,17.7c0,3.6,2.1,8.6,6.4,15.2
		c4.3,6.5,6.4,11.6,6.4,15.2c0,10.8-16.7,27.6-50.1,50.5l-11.9-26.5c17.7-13.1,26.5-23.7,26.5-31.9c0-2.9-1-5.7-3.1-8.3l-17.9-22.5
		c-4.5-5.8-6.7-12.1-6.7-19c0-17.3,15.2-39.4,45.5-66.5c4.5-3.8,11-9.7,19.6-17.5L698.7,79.6z"/>
</g>
</svg>
